<svg width="35" height="36" viewBox="0 0 35 36" fill="none" xmlns="http://www.w3.org/2000/svg">
<path d="M24.1341 18.4546L34.0842 8.50442C35.3053 7.28339 35.3053 5.30371 34.0842 4.08169L31.8729 1.87033C30.6518 0.649304 28.6722 0.649304 27.4501 1.87033L17.5 11.8205L7.54986 1.87033C6.32884 0.649304 4.34915 0.649304 3.12713 1.87033L0.915767 4.08169C-0.305256 5.30271 -0.305256 7.2824 0.915767 8.50442L10.8659 18.4546L0.915767 28.4047C-0.305256 29.6257 -0.305256 31.6054 0.915767 32.8274L3.12713 35.0388C4.34815 36.2598 6.32884 36.2598 7.54986 35.0388L17.5 25.0887L27.4501 35.0388C28.6712 36.2598 30.6518 36.2598 31.8729 35.0388L34.0842 32.8274C35.3053 31.6064 35.3053 29.6267 34.0842 28.4047L24.1341 18.4546Z" fill="#7A7A7A"/>
</svg>
