<svg width="25" height="25" viewBox="0 0 25 25" fill="none" xmlns="http://www.w3.org/2000/svg">
<path d="M8.20307 0L7.42182 0C6.77461 0 6.24995 0.524658 6.24995 1.17188L6.24995 18.75H3.9062C2.86289 18.75 2.34165 20.0146 3.07754 20.7505L6.98379 24.6568C7.44145 25.1144 8.18344 25.1144 8.64106 24.6568L12.5473 20.7505C13.2803 20.0174 12.7664 18.75 11.7187 18.75H9.37495V1.17188C9.37495 0.524658 8.85029 0 8.20307 0ZM15.6249 23.8281L15.6249 6.25H13.2812C12.2405 6.25 11.7148 4.98721 12.4525 4.24946L16.3588 0.343213C16.8165 -0.114404 17.5584 -0.114404 18.0161 0.343213L21.9223 4.24946C22.6561 4.98325 22.1404 6.25 21.0937 6.25H18.7499V23.8281C18.7499 24.4753 18.2253 25 17.5781 25H16.7968C16.1496 25 15.6249 24.4753 15.6249 23.8281Z" fill="#ACACAC"/>
</svg>
