<svg width="58" height="58" viewBox="0 0 58 58" fill="none" xmlns="http://www.w3.org/2000/svg">
<path d="M29 0C12.9798 0 0 12.9235 0 28.8741C0 44.8248 12.9798 57.7483 29 57.7483C45.0202 57.7483 58 44.8248 58 28.8741C58 12.9235 45.0202 0 29 0ZM29 11.1771C34.6831 11.1771 39.2903 15.7643 39.2903 21.4227C39.2903 27.0811 34.6831 31.6684 29 31.6684C23.3169 31.6684 18.7097 27.0811 18.7097 21.4227C18.7097 15.7643 23.3169 11.1771 29 11.1771ZM29 51.2283C22.1359 51.2283 15.9851 48.1313 11.869 43.2879C14.0673 39.1664 18.3706 36.3255 23.3871 36.3255C23.6677 36.3255 23.9484 36.3721 24.2173 36.4536C25.7375 36.9426 27.3278 37.2569 29 37.2569C30.6722 37.2569 32.2742 36.9426 33.7827 36.4536C34.0516 36.3721 34.3323 36.3255 34.6129 36.3255C39.6294 36.3255 43.9327 39.1664 46.1311 43.2879C42.0149 48.1313 35.8641 51.2283 29 51.2283Z" fill="#2885CA"/>
</svg>
